<mxfile host="app.diagrams.net" agent="Mozilla/5.0 (Macintosh; Intel Mac OS X 10_15_7) AppleWebKit/605.1.15 (KHTML, like Gecko) Version/17.6 Safari/605.1.15" version="24.7.8" pages="4">
  <diagram name="Architecture_EN" id="bwJH2bJUkyhLwNZ_8568">
    <mxGraphModel dx="826" dy="582" grid="1" gridSize="10" guides="1" tooltips="1" connect="1" arrows="1" fold="1" page="1" pageScale="1" pageWidth="827" pageHeight="1169" math="0" shadow="0">
      <root>
        <mxCell id="0" />
        <mxCell id="1" parent="0" />
        <mxCell id="DJtRfI22fZduMUB-v4Cr-2" value="Producer" style="rounded=1;whiteSpace=wrap;html=1;" vertex="1" parent="1">
          <mxGeometry x="100" y="150" width="120" height="60" as="geometry" />
        </mxCell>
        <mxCell id="DJtRfI22fZduMUB-v4Cr-3" value="&lt;div&gt;&lt;br&gt;&lt;/div&gt;&lt;div&gt;&lt;br&gt;&lt;/div&gt;&lt;div&gt;&lt;br&gt;&lt;/div&gt;&lt;div&gt;&lt;br&gt;&lt;/div&gt;Middleware Oriented Message" style="rounded=1;whiteSpace=wrap;html=1;" vertex="1" parent="1">
          <mxGeometry x="320" y="160" width="240" height="90" as="geometry" />
        </mxCell>
        <mxCell id="DJtRfI22fZduMUB-v4Cr-4" value="Standard Queue" style="rounded=0;whiteSpace=wrap;html=1;" vertex="1" parent="1">
          <mxGeometry x="340" y="170" width="200" height="20" as="geometry" />
        </mxCell>
        <mxCell id="DJtRfI22fZduMUB-v4Cr-5" value="Dead Letter Queue" style="rounded=0;whiteSpace=wrap;html=1;" vertex="1" parent="1">
          <mxGeometry x="340" y="195" width="200" height="20" as="geometry" />
        </mxCell>
        <mxCell id="DJtRfI22fZduMUB-v4Cr-6" style="edgeStyle=orthogonalEdgeStyle;rounded=0;orthogonalLoop=1;jettySize=auto;html=1;exitX=0.5;exitY=1;exitDx=0;exitDy=0;" edge="1" parent="1" source="DJtRfI22fZduMUB-v4Cr-3" target="DJtRfI22fZduMUB-v4Cr-3">
          <mxGeometry relative="1" as="geometry" />
        </mxCell>
        <mxCell id="DJtRfI22fZduMUB-v4Cr-7" value="&lt;div&gt;&lt;br&gt;&lt;/div&gt;&lt;div&gt;&lt;br&gt;&lt;/div&gt;Consumer" style="rounded=1;whiteSpace=wrap;html=1;" vertex="1" parent="1">
          <mxGeometry x="640" y="160" width="240" height="60" as="geometry" />
        </mxCell>
        <mxCell id="DJtRfI22fZduMUB-v4Cr-8" value="Backoff Retry" style="rounded=1;whiteSpace=wrap;html=1;" vertex="1" parent="1">
          <mxGeometry x="650" y="170" width="100" height="20" as="geometry" />
        </mxCell>
        <mxCell id="DJtRfI22fZduMUB-v4Cr-9" value="Circuit Breaker" style="rounded=1;whiteSpace=wrap;html=1;" vertex="1" parent="1">
          <mxGeometry x="770" y="170" width="100" height="20" as="geometry" />
        </mxCell>
        <mxCell id="DJtRfI22fZduMUB-v4Cr-10" value="Service" style="rounded=1;whiteSpace=wrap;html=1;" vertex="1" parent="1">
          <mxGeometry x="640" y="320" width="240" height="40" as="geometry" />
        </mxCell>
        <mxCell id="DJtRfI22fZduMUB-v4Cr-11" value="" style="endArrow=classic;html=1;rounded=0;exitX=1;exitY=0.5;exitDx=0;exitDy=0;entryX=0;entryY=0.5;entryDx=0;entryDy=0;" edge="1" parent="1" source="DJtRfI22fZduMUB-v4Cr-2" target="DJtRfI22fZduMUB-v4Cr-4">
          <mxGeometry width="50" height="50" relative="1" as="geometry">
            <mxPoint x="460" y="320" as="sourcePoint" />
            <mxPoint x="510" y="270" as="targetPoint" />
          </mxGeometry>
        </mxCell>
        <mxCell id="DJtRfI22fZduMUB-v4Cr-12" value="" style="endArrow=classic;html=1;rounded=0;exitX=1;exitY=0.5;exitDx=0;exitDy=0;entryX=0;entryY=0.25;entryDx=0;entryDy=0;" edge="1" parent="1" source="DJtRfI22fZduMUB-v4Cr-4" target="DJtRfI22fZduMUB-v4Cr-7">
          <mxGeometry width="50" height="50" relative="1" as="geometry">
            <mxPoint x="570" y="270" as="sourcePoint" />
            <mxPoint x="620" y="220" as="targetPoint" />
          </mxGeometry>
        </mxCell>
        <mxCell id="DJtRfI22fZduMUB-v4Cr-13" value="" style="endArrow=classic;html=1;rounded=0;exitX=0.008;exitY=0.633;exitDx=0;exitDy=0;exitPerimeter=0;entryX=1;entryY=0.5;entryDx=0;entryDy=0;" edge="1" parent="1" source="DJtRfI22fZduMUB-v4Cr-7" target="DJtRfI22fZduMUB-v4Cr-5">
          <mxGeometry width="50" height="50" relative="1" as="geometry">
            <mxPoint x="570" y="270" as="sourcePoint" />
            <mxPoint x="620" y="220" as="targetPoint" />
          </mxGeometry>
        </mxCell>
        <mxCell id="DJtRfI22fZduMUB-v4Cr-14" value="" style="endArrow=classic;html=1;rounded=0;entryX=0.75;entryY=0;entryDx=0;entryDy=0;exitX=0.75;exitY=1;exitDx=0;exitDy=0;" edge="1" parent="1" source="DJtRfI22fZduMUB-v4Cr-7" target="DJtRfI22fZduMUB-v4Cr-10">
          <mxGeometry width="50" height="50" relative="1" as="geometry">
            <mxPoint x="570" y="260" as="sourcePoint" />
            <mxPoint x="620" y="210" as="targetPoint" />
          </mxGeometry>
        </mxCell>
        <mxCell id="DJtRfI22fZduMUB-v4Cr-15" value="" style="endArrow=classic;html=1;rounded=0;exitX=0.25;exitY=0;exitDx=0;exitDy=0;entryX=0.25;entryY=1;entryDx=0;entryDy=0;" edge="1" parent="1" source="DJtRfI22fZduMUB-v4Cr-10" target="DJtRfI22fZduMUB-v4Cr-7">
          <mxGeometry width="50" height="50" relative="1" as="geometry">
            <mxPoint x="570" y="260" as="sourcePoint" />
            <mxPoint x="620" y="210" as="targetPoint" />
          </mxGeometry>
        </mxCell>
      </root>
    </mxGraphModel>
  </diagram>
  <diagram name="Architecture_FR" id="l8eb8dFg4j-5Sfejel3h">
    <mxGraphModel dx="826" dy="582" grid="1" gridSize="10" guides="1" tooltips="1" connect="1" arrows="1" fold="1" page="1" pageScale="1" pageWidth="827" pageHeight="1169" math="0" shadow="0">
      <root>
        <mxCell id="dh82dlVfma0PkSGkjW3L-0" />
        <mxCell id="dh82dlVfma0PkSGkjW3L-1" parent="dh82dlVfma0PkSGkjW3L-0" />
        <mxCell id="dh82dlVfma0PkSGkjW3L-2" value="Producteur" style="rounded=1;whiteSpace=wrap;html=1;" vertex="1" parent="dh82dlVfma0PkSGkjW3L-1">
          <mxGeometry x="100" y="150" width="120" height="60" as="geometry" />
        </mxCell>
        <mxCell id="dh82dlVfma0PkSGkjW3L-3" value="&lt;div&gt;&lt;br&gt;&lt;/div&gt;&lt;div&gt;&lt;br&gt;&lt;/div&gt;&lt;div&gt;&lt;br&gt;&lt;/div&gt;&lt;div&gt;&lt;br&gt;&lt;/div&gt;Middleware Oriented Message" style="rounded=1;whiteSpace=wrap;html=1;" vertex="1" parent="dh82dlVfma0PkSGkjW3L-1">
          <mxGeometry x="320" y="160" width="240" height="90" as="geometry" />
        </mxCell>
        <mxCell id="dh82dlVfma0PkSGkjW3L-4" value="File d&#39;attente principale" style="rounded=0;whiteSpace=wrap;html=1;" vertex="1" parent="dh82dlVfma0PkSGkjW3L-1">
          <mxGeometry x="340" y="170" width="200" height="20" as="geometry" />
        </mxCell>
        <mxCell id="dh82dlVfma0PkSGkjW3L-5" value="Dead Letter Queue" style="rounded=0;whiteSpace=wrap;html=1;" vertex="1" parent="dh82dlVfma0PkSGkjW3L-1">
          <mxGeometry x="340" y="195" width="200" height="20" as="geometry" />
        </mxCell>
        <mxCell id="dh82dlVfma0PkSGkjW3L-6" style="edgeStyle=orthogonalEdgeStyle;rounded=0;orthogonalLoop=1;jettySize=auto;html=1;exitX=0.5;exitY=1;exitDx=0;exitDy=0;" edge="1" parent="dh82dlVfma0PkSGkjW3L-1" source="dh82dlVfma0PkSGkjW3L-3" target="dh82dlVfma0PkSGkjW3L-3">
          <mxGeometry relative="1" as="geometry" />
        </mxCell>
        <mxCell id="dh82dlVfma0PkSGkjW3L-7" value="&lt;div&gt;&lt;br&gt;&lt;/div&gt;&lt;div&gt;&lt;br&gt;&lt;/div&gt;Consomateur" style="rounded=1;whiteSpace=wrap;html=1;" vertex="1" parent="dh82dlVfma0PkSGkjW3L-1">
          <mxGeometry x="640" y="160" width="240" height="60" as="geometry" />
        </mxCell>
        <mxCell id="dh82dlVfma0PkSGkjW3L-8" value="Backoff Retry" style="rounded=1;whiteSpace=wrap;html=1;" vertex="1" parent="dh82dlVfma0PkSGkjW3L-1">
          <mxGeometry x="650" y="170" width="100" height="20" as="geometry" />
        </mxCell>
        <mxCell id="dh82dlVfma0PkSGkjW3L-9" value="Circuit Breaker" style="rounded=1;whiteSpace=wrap;html=1;" vertex="1" parent="dh82dlVfma0PkSGkjW3L-1">
          <mxGeometry x="770" y="170" width="100" height="20" as="geometry" />
        </mxCell>
        <mxCell id="dh82dlVfma0PkSGkjW3L-10" value="Service" style="rounded=1;whiteSpace=wrap;html=1;" vertex="1" parent="dh82dlVfma0PkSGkjW3L-1">
          <mxGeometry x="640" y="320" width="240" height="40" as="geometry" />
        </mxCell>
        <mxCell id="dh82dlVfma0PkSGkjW3L-11" value="" style="endArrow=classic;html=1;rounded=0;exitX=1;exitY=0.5;exitDx=0;exitDy=0;entryX=0;entryY=0.5;entryDx=0;entryDy=0;" edge="1" parent="dh82dlVfma0PkSGkjW3L-1" source="dh82dlVfma0PkSGkjW3L-2" target="dh82dlVfma0PkSGkjW3L-4">
          <mxGeometry width="50" height="50" relative="1" as="geometry">
            <mxPoint x="460" y="320" as="sourcePoint" />
            <mxPoint x="510" y="270" as="targetPoint" />
          </mxGeometry>
        </mxCell>
        <mxCell id="dh82dlVfma0PkSGkjW3L-12" value="" style="endArrow=classic;html=1;rounded=0;exitX=1;exitY=0.5;exitDx=0;exitDy=0;entryX=0;entryY=0.25;entryDx=0;entryDy=0;" edge="1" parent="dh82dlVfma0PkSGkjW3L-1" source="dh82dlVfma0PkSGkjW3L-4" target="dh82dlVfma0PkSGkjW3L-7">
          <mxGeometry width="50" height="50" relative="1" as="geometry">
            <mxPoint x="570" y="270" as="sourcePoint" />
            <mxPoint x="620" y="220" as="targetPoint" />
          </mxGeometry>
        </mxCell>
        <mxCell id="dh82dlVfma0PkSGkjW3L-13" value="" style="endArrow=classic;html=1;rounded=0;exitX=0.008;exitY=0.633;exitDx=0;exitDy=0;exitPerimeter=0;entryX=1;entryY=0.5;entryDx=0;entryDy=0;" edge="1" parent="dh82dlVfma0PkSGkjW3L-1" source="dh82dlVfma0PkSGkjW3L-7" target="dh82dlVfma0PkSGkjW3L-5">
          <mxGeometry width="50" height="50" relative="1" as="geometry">
            <mxPoint x="570" y="270" as="sourcePoint" />
            <mxPoint x="620" y="220" as="targetPoint" />
          </mxGeometry>
        </mxCell>
        <mxCell id="dh82dlVfma0PkSGkjW3L-14" value="" style="endArrow=classic;html=1;rounded=0;entryX=0.75;entryY=0;entryDx=0;entryDy=0;exitX=0.75;exitY=1;exitDx=0;exitDy=0;" edge="1" parent="dh82dlVfma0PkSGkjW3L-1" source="dh82dlVfma0PkSGkjW3L-7" target="dh82dlVfma0PkSGkjW3L-10">
          <mxGeometry width="50" height="50" relative="1" as="geometry">
            <mxPoint x="570" y="260" as="sourcePoint" />
            <mxPoint x="620" y="210" as="targetPoint" />
          </mxGeometry>
        </mxCell>
        <mxCell id="dh82dlVfma0PkSGkjW3L-15" value="" style="endArrow=classic;html=1;rounded=0;exitX=0.25;exitY=0;exitDx=0;exitDy=0;entryX=0.25;entryY=1;entryDx=0;entryDy=0;" edge="1" parent="dh82dlVfma0PkSGkjW3L-1" source="dh82dlVfma0PkSGkjW3L-10" target="dh82dlVfma0PkSGkjW3L-7">
          <mxGeometry width="50" height="50" relative="1" as="geometry">
            <mxPoint x="570" y="260" as="sourcePoint" />
            <mxPoint x="620" y="210" as="targetPoint" />
          </mxGeometry>
        </mxCell>
      </root>
    </mxGraphModel>
  </diagram>
  <diagram id="R2kvHn6puGRWpGDO3i6m" name="Message_State_EN">
    <mxGraphModel dx="826" dy="582" grid="1" gridSize="10" guides="1" tooltips="1" connect="1" arrows="1" fold="1" page="1" pageScale="1" pageWidth="827" pageHeight="1169" math="0" shadow="0">
      <root>
        <mxCell id="0" />
        <mxCell id="1" parent="0" />
        <mxCell id="bOHIy-_dX-T6LEPonXPa-2" value="Processing" style="rounded=1;whiteSpace=wrap;html=1;" vertex="1" parent="1">
          <mxGeometry x="80" y="40" width="100" height="40" as="geometry" />
        </mxCell>
        <mxCell id="bOHIy-_dX-T6LEPonXPa-3" value="In Queue" style="rounded=1;whiteSpace=wrap;html=1;" vertex="1" parent="1">
          <mxGeometry x="240" y="40" width="100" height="40" as="geometry" />
        </mxCell>
        <mxCell id="6JdZIQiWsUP33UtTBtyv-1" value="Consumed" style="rounded=1;whiteSpace=wrap;html=1;" vertex="1" parent="1">
          <mxGeometry x="400" y="40" width="100" height="40" as="geometry" />
        </mxCell>
        <mxCell id="6JdZIQiWsUP33UtTBtyv-2" value="Processing" style="rounded=1;whiteSpace=wrap;html=1;" vertex="1" parent="1">
          <mxGeometry x="520" y="120" width="100" height="40" as="geometry" />
        </mxCell>
        <mxCell id="6JdZIQiWsUP33UtTBtyv-3" value="Error" style="rounded=1;whiteSpace=wrap;html=1;" vertex="1" parent="1">
          <mxGeometry x="360" y="200" width="100" height="40" as="geometry" />
        </mxCell>
        <mxCell id="6JdZIQiWsUP33UtTBtyv-4" value="Success" style="rounded=1;whiteSpace=wrap;html=1;" vertex="1" parent="1">
          <mxGeometry x="680" y="200" width="100" height="40" as="geometry" />
        </mxCell>
        <mxCell id="6JdZIQiWsUP33UtTBtyv-5" value="Dead Letter Queue" style="rounded=1;whiteSpace=wrap;html=1;" vertex="1" parent="1">
          <mxGeometry x="180" y="200" width="100" height="40" as="geometry" />
        </mxCell>
        <mxCell id="6JdZIQiWsUP33UtTBtyv-6" value="" style="endArrow=classic;html=1;rounded=0;exitX=1;exitY=0.5;exitDx=0;exitDy=0;entryX=0;entryY=0.5;entryDx=0;entryDy=0;" edge="1" parent="1" source="bOHIy-_dX-T6LEPonXPa-2" target="bOHIy-_dX-T6LEPonXPa-3">
          <mxGeometry width="50" height="50" relative="1" as="geometry">
            <mxPoint x="430" y="230" as="sourcePoint" />
            <mxPoint x="480" y="180" as="targetPoint" />
          </mxGeometry>
        </mxCell>
        <mxCell id="6JdZIQiWsUP33UtTBtyv-7" value="" style="endArrow=classic;html=1;rounded=0;exitX=1;exitY=0.5;exitDx=0;exitDy=0;entryX=0;entryY=0.5;entryDx=0;entryDy=0;" edge="1" parent="1" source="bOHIy-_dX-T6LEPonXPa-3" target="6JdZIQiWsUP33UtTBtyv-1">
          <mxGeometry width="50" height="50" relative="1" as="geometry">
            <mxPoint x="430" y="230" as="sourcePoint" />
            <mxPoint x="480" y="180" as="targetPoint" />
          </mxGeometry>
        </mxCell>
        <mxCell id="6JdZIQiWsUP33UtTBtyv-8" value="" style="endArrow=classic;html=1;rounded=0;exitX=1;exitY=0.5;exitDx=0;exitDy=0;entryX=0.5;entryY=0;entryDx=0;entryDy=0;" edge="1" parent="1" source="6JdZIQiWsUP33UtTBtyv-1" target="6JdZIQiWsUP33UtTBtyv-2">
          <mxGeometry width="50" height="50" relative="1" as="geometry">
            <mxPoint x="430" y="230" as="sourcePoint" />
            <mxPoint x="480" y="180" as="targetPoint" />
          </mxGeometry>
        </mxCell>
        <mxCell id="6JdZIQiWsUP33UtTBtyv-9" value="" style="endArrow=classic;html=1;rounded=0;exitX=1;exitY=0.5;exitDx=0;exitDy=0;entryX=0.5;entryY=0;entryDx=0;entryDy=0;" edge="1" parent="1" source="6JdZIQiWsUP33UtTBtyv-2" target="6JdZIQiWsUP33UtTBtyv-4">
          <mxGeometry width="50" height="50" relative="1" as="geometry">
            <mxPoint x="430" y="230" as="sourcePoint" />
            <mxPoint x="480" y="180" as="targetPoint" />
          </mxGeometry>
        </mxCell>
        <mxCell id="6JdZIQiWsUP33UtTBtyv-10" value="" style="endArrow=classic;html=1;rounded=0;exitX=0.5;exitY=1;exitDx=0;exitDy=0;entryX=1;entryY=0.5;entryDx=0;entryDy=0;" edge="1" parent="1" source="6JdZIQiWsUP33UtTBtyv-2" target="6JdZIQiWsUP33UtTBtyv-3">
          <mxGeometry width="50" height="50" relative="1" as="geometry">
            <mxPoint x="430" y="230" as="sourcePoint" />
            <mxPoint x="400" y="300" as="targetPoint" />
          </mxGeometry>
        </mxCell>
        <mxCell id="6JdZIQiWsUP33UtTBtyv-11" value="" style="endArrow=classic;html=1;rounded=0;entryX=0.5;entryY=1;entryDx=0;entryDy=0;exitX=0.5;exitY=0;exitDx=0;exitDy=0;" edge="1" parent="1" source="6JdZIQiWsUP33UtTBtyv-3" target="6JdZIQiWsUP33UtTBtyv-1">
          <mxGeometry width="50" height="50" relative="1" as="geometry">
            <mxPoint x="480" y="230" as="sourcePoint" />
            <mxPoint x="480" y="180" as="targetPoint" />
          </mxGeometry>
        </mxCell>
        <mxCell id="6JdZIQiWsUP33UtTBtyv-12" value="" style="endArrow=classic;html=1;rounded=0;exitX=0;exitY=0.5;exitDx=0;exitDy=0;entryX=1;entryY=0.5;entryDx=0;entryDy=0;" edge="1" parent="1" source="6JdZIQiWsUP33UtTBtyv-3" target="6JdZIQiWsUP33UtTBtyv-5">
          <mxGeometry width="50" height="50" relative="1" as="geometry">
            <mxPoint x="430" y="230" as="sourcePoint" />
            <mxPoint x="480" y="180" as="targetPoint" />
          </mxGeometry>
        </mxCell>
      </root>
    </mxGraphModel>
  </diagram>
  <diagram name="Message_State_FR" id="5U-2Nbe8duJ89M7cvHyc">
    <mxGraphModel dx="826" dy="582" grid="1" gridSize="10" guides="1" tooltips="1" connect="1" arrows="1" fold="1" page="1" pageScale="1" pageWidth="827" pageHeight="1169" math="0" shadow="0">
      <root>
        <mxCell id="_Lhw0vuHmFDKOdMTQYxT-0" />
        <mxCell id="_Lhw0vuHmFDKOdMTQYxT-1" parent="_Lhw0vuHmFDKOdMTQYxT-0" />
        <mxCell id="_Lhw0vuHmFDKOdMTQYxT-2" value="Génération" style="rounded=1;whiteSpace=wrap;html=1;" vertex="1" parent="_Lhw0vuHmFDKOdMTQYxT-1">
          <mxGeometry x="80" y="40" width="100" height="40" as="geometry" />
        </mxCell>
        <mxCell id="_Lhw0vuHmFDKOdMTQYxT-3" value="Dans la file d&#39;attente" style="rounded=1;whiteSpace=wrap;html=1;" vertex="1" parent="_Lhw0vuHmFDKOdMTQYxT-1">
          <mxGeometry x="240" y="40" width="100" height="40" as="geometry" />
        </mxCell>
        <mxCell id="_Lhw0vuHmFDKOdMTQYxT-4" value="Consommé" style="rounded=1;whiteSpace=wrap;html=1;" vertex="1" parent="_Lhw0vuHmFDKOdMTQYxT-1">
          <mxGeometry x="400" y="40" width="100" height="40" as="geometry" />
        </mxCell>
        <mxCell id="_Lhw0vuHmFDKOdMTQYxT-5" value="En cours de traitement" style="rounded=1;whiteSpace=wrap;html=1;" vertex="1" parent="_Lhw0vuHmFDKOdMTQYxT-1">
          <mxGeometry x="520" y="120" width="100" height="40" as="geometry" />
        </mxCell>
        <mxCell id="_Lhw0vuHmFDKOdMTQYxT-6" value="Erreur" style="rounded=1;whiteSpace=wrap;html=1;" vertex="1" parent="_Lhw0vuHmFDKOdMTQYxT-1">
          <mxGeometry x="360" y="200" width="100" height="40" as="geometry" />
        </mxCell>
        <mxCell id="_Lhw0vuHmFDKOdMTQYxT-7" value="Succès" style="rounded=1;whiteSpace=wrap;html=1;" vertex="1" parent="_Lhw0vuHmFDKOdMTQYxT-1">
          <mxGeometry x="680" y="200" width="100" height="40" as="geometry" />
        </mxCell>
        <mxCell id="_Lhw0vuHmFDKOdMTQYxT-8" value="Dead Letter Queue" style="rounded=1;whiteSpace=wrap;html=1;" vertex="1" parent="_Lhw0vuHmFDKOdMTQYxT-1">
          <mxGeometry x="180" y="200" width="100" height="40" as="geometry" />
        </mxCell>
        <mxCell id="_Lhw0vuHmFDKOdMTQYxT-9" value="" style="endArrow=classic;html=1;rounded=0;exitX=1;exitY=0.5;exitDx=0;exitDy=0;entryX=0;entryY=0.5;entryDx=0;entryDy=0;" edge="1" parent="_Lhw0vuHmFDKOdMTQYxT-1" source="_Lhw0vuHmFDKOdMTQYxT-2" target="_Lhw0vuHmFDKOdMTQYxT-3">
          <mxGeometry width="50" height="50" relative="1" as="geometry">
            <mxPoint x="430" y="230" as="sourcePoint" />
            <mxPoint x="480" y="180" as="targetPoint" />
          </mxGeometry>
        </mxCell>
        <mxCell id="_Lhw0vuHmFDKOdMTQYxT-10" value="" style="endArrow=classic;html=1;rounded=0;exitX=1;exitY=0.5;exitDx=0;exitDy=0;entryX=0;entryY=0.5;entryDx=0;entryDy=0;" edge="1" parent="_Lhw0vuHmFDKOdMTQYxT-1" source="_Lhw0vuHmFDKOdMTQYxT-3" target="_Lhw0vuHmFDKOdMTQYxT-4">
          <mxGeometry width="50" height="50" relative="1" as="geometry">
            <mxPoint x="430" y="230" as="sourcePoint" />
            <mxPoint x="480" y="180" as="targetPoint" />
          </mxGeometry>
        </mxCell>
        <mxCell id="_Lhw0vuHmFDKOdMTQYxT-11" value="" style="endArrow=classic;html=1;rounded=0;exitX=1;exitY=0.5;exitDx=0;exitDy=0;entryX=0.5;entryY=0;entryDx=0;entryDy=0;" edge="1" parent="_Lhw0vuHmFDKOdMTQYxT-1" source="_Lhw0vuHmFDKOdMTQYxT-4" target="_Lhw0vuHmFDKOdMTQYxT-5">
          <mxGeometry width="50" height="50" relative="1" as="geometry">
            <mxPoint x="430" y="230" as="sourcePoint" />
            <mxPoint x="480" y="180" as="targetPoint" />
          </mxGeometry>
        </mxCell>
        <mxCell id="_Lhw0vuHmFDKOdMTQYxT-12" value="" style="endArrow=classic;html=1;rounded=0;exitX=1;exitY=0.5;exitDx=0;exitDy=0;entryX=0.5;entryY=0;entryDx=0;entryDy=0;" edge="1" parent="_Lhw0vuHmFDKOdMTQYxT-1" source="_Lhw0vuHmFDKOdMTQYxT-5" target="_Lhw0vuHmFDKOdMTQYxT-7">
          <mxGeometry width="50" height="50" relative="1" as="geometry">
            <mxPoint x="430" y="230" as="sourcePoint" />
            <mxPoint x="480" y="180" as="targetPoint" />
          </mxGeometry>
        </mxCell>
        <mxCell id="_Lhw0vuHmFDKOdMTQYxT-13" value="" style="endArrow=classic;html=1;rounded=0;exitX=0.5;exitY=1;exitDx=0;exitDy=0;entryX=1;entryY=0.5;entryDx=0;entryDy=0;" edge="1" parent="_Lhw0vuHmFDKOdMTQYxT-1" source="_Lhw0vuHmFDKOdMTQYxT-5" target="_Lhw0vuHmFDKOdMTQYxT-6">
          <mxGeometry width="50" height="50" relative="1" as="geometry">
            <mxPoint x="430" y="230" as="sourcePoint" />
            <mxPoint x="400" y="300" as="targetPoint" />
          </mxGeometry>
        </mxCell>
        <mxCell id="_Lhw0vuHmFDKOdMTQYxT-14" value="" style="endArrow=classic;html=1;rounded=0;entryX=0.5;entryY=1;entryDx=0;entryDy=0;exitX=0.5;exitY=0;exitDx=0;exitDy=0;" edge="1" parent="_Lhw0vuHmFDKOdMTQYxT-1" source="_Lhw0vuHmFDKOdMTQYxT-6" target="_Lhw0vuHmFDKOdMTQYxT-4">
          <mxGeometry width="50" height="50" relative="1" as="geometry">
            <mxPoint x="480" y="230" as="sourcePoint" />
            <mxPoint x="480" y="180" as="targetPoint" />
          </mxGeometry>
        </mxCell>
        <mxCell id="_Lhw0vuHmFDKOdMTQYxT-15" value="" style="endArrow=classic;html=1;rounded=0;exitX=0;exitY=0.5;exitDx=0;exitDy=0;entryX=1;entryY=0.5;entryDx=0;entryDy=0;" edge="1" parent="_Lhw0vuHmFDKOdMTQYxT-1" source="_Lhw0vuHmFDKOdMTQYxT-6" target="_Lhw0vuHmFDKOdMTQYxT-8">
          <mxGeometry width="50" height="50" relative="1" as="geometry">
            <mxPoint x="430" y="230" as="sourcePoint" />
            <mxPoint x="480" y="180" as="targetPoint" />
          </mxGeometry>
        </mxCell>
      </root>
    </mxGraphModel>
  </diagram>
</mxfile>
